<?xml version="1.0" standalone="no"?>
<!DOCTYPE svg PUBLIC "-//W3C//DTD SVG 20010904//EN"
 "http://www.w3.org/TR/2001/REC-SVG-20010904/DTD/svg10.dtd">
<svg version="1.0" xmlns="http://www.w3.org/2000/svg"
 width="650.000000pt" height="650.000000pt" viewBox="0 0 650.000000 650.000000"
 preserveAspectRatio="xMidYMid meet">

<g transform="translate(0.000000,650.000000) scale(0.100000,-0.100000)"
fill="#000000" stroke="none">
<path d="M3122 3440 c-13 -22 -20 -45 -17 -50 4 -6 2 -9 -3 -8 -6 2 -30 -26
-54 -62 -37 -56 -68 -85 -68 -64 0 4 20 44 45 90 30 55 40 82 30 78 -9 -4 -14
-9 -11 -12 10 -9 -24 -46 -46 -49 -12 -2 -25 -8 -29 -14 -3 -6 -19 -9 -35 -8
-21 3 -28 0 -26 -10 3 -12 1 -12 -14 0 -16 13 -17 12 -12 -11 4 -24 2 -25 -30
-22 -27 4 -33 1 -27 -8 6 -10 4 -12 -8 -7 -20 7 -35 -12 -17 -23 17 -10 0 -20
-47 -26 -37 -4 -83 -37 -83 -59 0 -6 8 -18 18 -27 9 -9 25 -28 35 -42 25 -36
37 -32 30 9 -6 40 9 65 41 65 28 0 46 -18 46 -45 0 -25 -18 -45 -41 -45 -29 0
-41 -25 -21 -43 27 -25 105 -56 156 -63 25 -4 46 -10 46 -14 0 -33 -136 -5
-202 41 -16 12 -30 20 -32 18 -2 -2 -15 -22 -29 -44 -32 -47 -36 -36 -6 19
l21 39 -20 26 c-11 14 -25 25 -31 24 -6 -2 -8 4 -5 12 3 7 2 20 -3 28 -6 11
-53 -61 -168 -254 -88 -148 -165 -269 -171 -269 -5 0 -20 -9 -32 -20 -12 -11
-36 -23 -54 -26 -18 -3 -40 -8 -48 -12 -8 -3 -18 -6 -23 -6 -14 -2 -351 -578
-372 -637 -37 -104 -8 -240 70 -327 63 -70 146 -106 245 -106 47 0 89 6 112
17 21 9 308 172 639 364 l601 347 -44 12 c-23 6 -58 18 -75 28 l-33 17 -277
-160 c-153 -87 -404 -234 -558 -325 -154 -92 -296 -171 -317 -178 -152 -46
-306 128 -244 276 16 38 128 230 223 383 37 58 69 100 76 97 7 -2 25 16 40 41
38 59 44 57 12 -5 -14 -27 -25 -51 -25 -53 0 -3 13 -10 30 -17 16 -7 35 -19
42 -28 11 -13 11 -14 -1 -7 -10 5 -12 4 -7 -3 4 -7 14 -12 22 -12 8 0 14 -5
14 -10 0 -20 65 1 91 30 15 16 25 31 22 33 -2 3 29 65 70 139 47 82 72 137 66
143 -13 14 -11 59 5 80 19 27 74 24 98 -4 10 -13 18 -31 18 -41 0 -26 -31 -59
-60 -63 -20 -3 -42 -32 -117 -157 -51 -84 -93 -157 -93 -161 0 -4 15 -3 33 3
17 5 38 10 45 11 7 0 88 126 179 278 92 153 168 277 170 275 3 -2 -56 -111
-130 -242 -73 -132 -140 -250 -147 -264 -12 -22 -9 -21 31 11 40 32 192 124
343 208 127 71 136 78 135 114 -1 30 -1 31 -9 7 -4 -14 -8 -20 -9 -13 -1 7
-18 10 -46 10 -25 -1 -45 -1 -45 1 0 8 62 124 131 243 54 94 77 142 72 154 -6
17 -7 17 -14 -1 -3 -11 -20 -26 -35 -34 -16 -8 -53 -30 -82 -48 l-52 -33 36
68 c46 85 210 377 235 419 l19 32 -72 -4 c-39 -3 -78 -10 -86 -17 -13 -10 -14
-8 -8 16 9 36 5 34 -22 -13z m34 -457 c-10 -10 -19 5 -10 18 6 11 8 11 12 0 2
-7 1 -15 -2 -18z"/>
<path d="M4610 3360 c0 -13 -12 -28 -31 -38 -124 -69 -184 -110 -180 -123 2
-8 4 -20 4 -27 0 -9 9 -11 29 -7 30 7 37 -5 14 -25 -11 -8 -12 -18 -5 -36 5
-14 9 -37 8 -52 0 -24 -1 -25 -9 -7 -7 17 -9 15 -9 -12 l-1 -31 91 49 c114 62
192 113 180 117 -6 2 -7 10 -4 18 3 8 0 14 -7 14 -10 0 -10 3 0 15 10 12 9 16
-3 21 -13 5 -14 10 -5 24 9 14 8 24 -5 44 -9 14 -17 32 -17 41 0 13 -4 14 -21
4 -19 -10 -20 -8 -14 10 4 12 2 21 -4 21 -6 0 -11 -9 -11 -20z"/>
<path d="M4690 3376 c0 -2 7 -7 16 -10 8 -3 12 -2 9 4 -6 10 -25 14 -25 6z"/>
<path d="M4913 3347 c-35 -17 -63 -37 -63 -44 0 -7 3 -13 6 -13 14 0 124 72
124 81 0 11 6 13 -67 -24z"/>
<path d="M4787 3258 c8 -44 13 -48 13 -10 0 17 -4 34 -10 37 -6 4 -7 -6 -3
-27z"/>
<path d="M3856 3146 c-9 -19 -16 -52 -16 -75 0 -31 -5 -44 -22 -54 -13 -8 -60
-36 -106 -63 l-82 -48 36 -18 c20 -9 41 -22 48 -27 19 -16 58 10 71 48 6 18
23 46 39 61 23 24 32 27 57 20 33 -10 34 -10 50 -10 5 0 7 -5 3 -11 -4 -7 12
-1 35 12 23 13 38 25 32 27 -15 5 -14 36 3 77 l15 35 -80 -40 -79 -40 0 27 c1
16 7 46 15 68 17 48 17 45 6 45 -5 0 -16 -15 -25 -34z"/>
<path d="M3260 3140 c-6 -11 -8 -20 -6 -20 3 0 10 9 16 20 6 11 8 20 6 20 -3
0 -10 -9 -16 -20z"/>
<path d="M3234 3095 c-4 -8 -9 -13 -13 -11 -4 3 -8 -4 -8 -15 -2 -27 4 -24 22
11 9 17 13 30 10 30 -3 0 -8 -7 -11 -15z"/>
<path d="M3384 2905 c-10 -8 -14 -15 -8 -15 6 0 17 7 24 15 16 19 9 19 -16 0z"/>
<path d="M4302 2855 c0 -16 4 -43 8 -60 8 -30 8 -30 9 -3 0 14 3 32 6 40 3 7
-1 22 -9 33 -15 19 -15 19 -14 -10z"/>
<path d="M4097 2802 c-30 -16 -47 -32 -47 -44 0 -10 -7 -34 -15 -53 -19 -47
-54 -60 -114 -42 -67 19 -81 13 -81 -33 0 -21 -4 -50 -9 -63 -9 -24 -8 -24 57
12 37 21 91 52 120 69 29 18 55 32 57 32 5 0 179 105 208 125 15 11 11 12 -27
8 -24 -3 -58 -1 -74 5 -24 8 -37 6 -75 -16z"/>
<path d="M2883 2465 c-3 -9 -3 -18 -1 -21 3 -3 8 4 11 16 6 23 -1 27 -10 5z"/>
<path d="M3581 2454 c0 -11 3 -14 6 -6 3 7 2 16 -1 19 -3 4 -6 -2 -5 -13z"/>
<path d="M3593 2385 c0 -22 2 -30 4 -17 2 12 2 30 0 40 -3 9 -5 -1 -4 -23z"/>
<path d="M3694 2344 c-18 -14 -18 -15 4 -4 12 6 22 13 22 15 0 8 -5 6 -26 -11z"/>
<path d="M3151 2315 c1 -19 18 -51 18 -35 0 8 -4 22 -9 30 -5 8 -9 11 -9 5z"/>
</g>
</svg>
